%TF.GenerationSoftware,KiCad,Pcbnew,7.0.9*%
%TF.CreationDate,2024-02-08T14:16:21+01:00*%
%TF.ProjectId,signaux,7369676e-6175-4782-9e6b-696361645f70,rev?*%
%TF.SameCoordinates,Original*%
%TF.FileFunction,Soldermask,Bot*%
%TF.FilePolarity,Negative*%
%FSLAX46Y46*%
G04 Gerber Fmt 4.6, Leading zero omitted, Abs format (unit mm)*
G04 Created by KiCad (PCBNEW 7.0.9) date 2024-02-08 14:16:21*
%MOMM*%
%LPD*%
G01*
G04 APERTURE LIST*
G04 Aperture macros list*
%AMRoundRect*
0 Rectangle with rounded corners*
0 $1 Rounding radius*
0 $2 $3 $4 $5 $6 $7 $8 $9 X,Y pos of 4 corners*
0 Add a 4 corners polygon primitive as box body*
4,1,4,$2,$3,$4,$5,$6,$7,$8,$9,$2,$3,0*
0 Add four circle primitives for the rounded corners*
1,1,$1+$1,$2,$3*
1,1,$1+$1,$4,$5*
1,1,$1+$1,$6,$7*
1,1,$1+$1,$8,$9*
0 Add four rect primitives between the rounded corners*
20,1,$1+$1,$2,$3,$4,$5,0*
20,1,$1+$1,$4,$5,$6,$7,0*
20,1,$1+$1,$6,$7,$8,$9,0*
20,1,$1+$1,$8,$9,$2,$3,0*%
G04 Aperture macros list end*
%ADD10C,0.150000*%
%ADD11C,1.400000*%
%ADD12O,1.400000X1.400000*%
%ADD13R,1.200000X1.800000*%
%ADD14RoundRect,0.300000X0.300000X0.600000X-0.300000X0.600000X-0.300000X-0.600000X0.300000X-0.600000X0*%
%ADD15C,1.800000*%
%ADD16RoundRect,0.300000X-0.300000X-0.600000X0.300000X-0.600000X0.300000X0.600000X-0.300000X0.600000X0*%
%ADD17RoundRect,0.250000X0.250000X0.750000X-0.250000X0.750000X-0.250000X-0.750000X0.250000X-0.750000X0*%
G04 APERTURE END LIST*
D10*
X104219333Y-77559819D02*
X104219333Y-78274104D01*
X104219333Y-78274104D02*
X104266952Y-78416961D01*
X104266952Y-78416961D02*
X104362190Y-78512200D01*
X104362190Y-78512200D02*
X104505047Y-78559819D01*
X104505047Y-78559819D02*
X104600285Y-78559819D01*
X103219333Y-78559819D02*
X103790761Y-78559819D01*
X103505047Y-78559819D02*
X103505047Y-77559819D01*
X103505047Y-77559819D02*
X103600285Y-77702676D01*
X103600285Y-77702676D02*
X103695523Y-77797914D01*
X103695523Y-77797914D02*
X103790761Y-77845533D01*
X110696333Y-77559819D02*
X110696333Y-78274104D01*
X110696333Y-78274104D02*
X110743952Y-78416961D01*
X110743952Y-78416961D02*
X110839190Y-78512200D01*
X110839190Y-78512200D02*
X110982047Y-78559819D01*
X110982047Y-78559819D02*
X111077285Y-78559819D01*
X109791571Y-77893152D02*
X109791571Y-78559819D01*
X110029666Y-77512200D02*
X110267761Y-78226485D01*
X110267761Y-78226485D02*
X109648714Y-78226485D01*
D11*
%TO.C,R3*%
X108458000Y-81661000D03*
D12*
X108458000Y-89281000D03*
%TD*%
D11*
%TO.C,R2*%
X105918000Y-81661000D03*
D12*
X105918000Y-89281000D03*
%TD*%
D13*
%TO.C,DO/V1*%
X110368000Y-75565000D03*
D14*
X107828000Y-75565000D03*
%TD*%
D15*
%TO.C,J12*%
X105918000Y-92329000D03*
%TD*%
D13*
%TO.C,DR2*%
X107823000Y-67945000D03*
D16*
X110363000Y-67945000D03*
%TD*%
D15*
%TO.C,J13*%
X108458000Y-92329000D03*
%TD*%
D13*
%TO.C,D1G1*%
X106172000Y-65405000D03*
D14*
X103632000Y-65405000D03*
%TD*%
D13*
%TO.C,DR1*%
X103627000Y-67945000D03*
D16*
X106167000Y-67945000D03*
%TD*%
D15*
%TO.C,J14*%
X110998000Y-92329000D03*
%TD*%
D13*
%TO.C,DO/R1*%
X106172000Y-75565000D03*
D14*
X103632000Y-75565000D03*
%TD*%
D11*
%TO.C,R1*%
X103378000Y-81661000D03*
D12*
X103378000Y-89281000D03*
%TD*%
D13*
%TO.C,D1G2*%
X110363000Y-65405000D03*
D14*
X107823000Y-65405000D03*
%TD*%
D15*
%TO.C,J11*%
X103378000Y-92329000D03*
%TD*%
D13*
%TO.C,DW2*%
X107823000Y-70485000D03*
D16*
X110363000Y-70485000D03*
%TD*%
D11*
%TO.C,R4*%
X110998000Y-81661000D03*
D12*
X110998000Y-89281000D03*
%TD*%
D13*
%TO.C,DW1*%
X103632000Y-73025000D03*
D16*
X106172000Y-73025000D03*
%TD*%
D17*
%TO.C,J1*%
X105791000Y-78232000D03*
%TD*%
%TO.C,J4*%
X108331000Y-78232000D03*
%TD*%
M02*
