%TF.GenerationSoftware,KiCad,Pcbnew,7.0.9*%
%TF.CreationDate,2024-02-08T14:16:19+01:00*%
%TF.ProjectId,signaux,7369676e-6175-4782-9e6b-696361645f70,rev?*%
%TF.SameCoordinates,Original*%
%TF.FileFunction,Drillmap*%
%TF.FilePolarity,Positive*%
%FSLAX45Y45*%
G04 Gerber Fmt 4.5, Leading zero omitted, Abs format (unit mm)*
G04 Created by KiCad (PCBNEW 7.0.9) date 2024-02-08 14:16:19*
%MOMM*%
%LPD*%
G01*
G04 APERTURE LIST*
%ADD10C,0.100000*%
%ADD11C,0.200000*%
G04 APERTURE END LIST*
D10*
X10198100Y-6388100D02*
X11239500Y-6388100D01*
X11239500Y-9385300D01*
X10198100Y-9385300D01*
X10198100Y-6388100D01*
D11*
X10453877Y-9701784D02*
X10453877Y-9501784D01*
X10453877Y-9501784D02*
X10501496Y-9501784D01*
X10501496Y-9501784D02*
X10530067Y-9511308D01*
X10530067Y-9511308D02*
X10549115Y-9530355D01*
X10549115Y-9530355D02*
X10558639Y-9549403D01*
X10558639Y-9549403D02*
X10568163Y-9587498D01*
X10568163Y-9587498D02*
X10568163Y-9616070D01*
X10568163Y-9616070D02*
X10558639Y-9654165D01*
X10558639Y-9654165D02*
X10549115Y-9673212D01*
X10549115Y-9673212D02*
X10530067Y-9692260D01*
X10530067Y-9692260D02*
X10501496Y-9701784D01*
X10501496Y-9701784D02*
X10453877Y-9701784D01*
X10653877Y-9701784D02*
X10653877Y-9568450D01*
X10653877Y-9606546D02*
X10663401Y-9587498D01*
X10663401Y-9587498D02*
X10672924Y-9577974D01*
X10672924Y-9577974D02*
X10691972Y-9568450D01*
X10691972Y-9568450D02*
X10711020Y-9568450D01*
X10777686Y-9701784D02*
X10777686Y-9568450D01*
X10777686Y-9501784D02*
X10768163Y-9511308D01*
X10768163Y-9511308D02*
X10777686Y-9520831D01*
X10777686Y-9520831D02*
X10787210Y-9511308D01*
X10787210Y-9511308D02*
X10777686Y-9501784D01*
X10777686Y-9501784D02*
X10777686Y-9520831D01*
X10901496Y-9701784D02*
X10882448Y-9692260D01*
X10882448Y-9692260D02*
X10872924Y-9673212D01*
X10872924Y-9673212D02*
X10872924Y-9501784D01*
X11006258Y-9701784D02*
X10987210Y-9692260D01*
X10987210Y-9692260D02*
X10977686Y-9673212D01*
X10977686Y-9673212D02*
X10977686Y-9501784D01*
X11234829Y-9701784D02*
X11234829Y-9501784D01*
X11234829Y-9501784D02*
X11301496Y-9644641D01*
X11301496Y-9644641D02*
X11368162Y-9501784D01*
X11368162Y-9501784D02*
X11368162Y-9701784D01*
X11549115Y-9701784D02*
X11549115Y-9597022D01*
X11549115Y-9597022D02*
X11539591Y-9577974D01*
X11539591Y-9577974D02*
X11520543Y-9568450D01*
X11520543Y-9568450D02*
X11482448Y-9568450D01*
X11482448Y-9568450D02*
X11463401Y-9577974D01*
X11549115Y-9692260D02*
X11530067Y-9701784D01*
X11530067Y-9701784D02*
X11482448Y-9701784D01*
X11482448Y-9701784D02*
X11463401Y-9692260D01*
X11463401Y-9692260D02*
X11453877Y-9673212D01*
X11453877Y-9673212D02*
X11453877Y-9654165D01*
X11453877Y-9654165D02*
X11463401Y-9635117D01*
X11463401Y-9635117D02*
X11482448Y-9625593D01*
X11482448Y-9625593D02*
X11530067Y-9625593D01*
X11530067Y-9625593D02*
X11549115Y-9616070D01*
X11644353Y-9568450D02*
X11644353Y-9768450D01*
X11644353Y-9577974D02*
X11663401Y-9568450D01*
X11663401Y-9568450D02*
X11701496Y-9568450D01*
X11701496Y-9568450D02*
X11720543Y-9577974D01*
X11720543Y-9577974D02*
X11730067Y-9587498D01*
X11730067Y-9587498D02*
X11739591Y-9606546D01*
X11739591Y-9606546D02*
X11739591Y-9663689D01*
X11739591Y-9663689D02*
X11730067Y-9682736D01*
X11730067Y-9682736D02*
X11720543Y-9692260D01*
X11720543Y-9692260D02*
X11701496Y-9701784D01*
X11701496Y-9701784D02*
X11663401Y-9701784D01*
X11663401Y-9701784D02*
X11644353Y-9692260D01*
X11825305Y-9682736D02*
X11834829Y-9692260D01*
X11834829Y-9692260D02*
X11825305Y-9701784D01*
X11825305Y-9701784D02*
X11815782Y-9692260D01*
X11815782Y-9692260D02*
X11825305Y-9682736D01*
X11825305Y-9682736D02*
X11825305Y-9701784D01*
X11825305Y-9577974D02*
X11834829Y-9587498D01*
X11834829Y-9587498D02*
X11825305Y-9597022D01*
X11825305Y-9597022D02*
X11815782Y-9587498D01*
X11815782Y-9587498D02*
X11825305Y-9577974D01*
X11825305Y-9577974D02*
X11825305Y-9597022D01*
M02*
