M48
; DRILL file {KiCad 7.0.9} date Thursday, February 08, 2024 at 02:16:18 PM
; FORMAT={-:-/ absolute / inch / decimal}
; #@! TF.CreationDate,2024-02-08T14:16:18+01:00
; #@! TF.GenerationSoftware,Kicad,Pcbnew,7.0.9
; #@! TF.FileFunction,Plated,1,2,PTH
FMAT,2
INCH
; #@! TA.AperFunction,Plated,PTH,ComponentDrill
T1C0.0276
; #@! TA.AperFunction,Plated,PTH,ComponentDrill
T2C0.0354
%
G90
G05
T1
X4.07Y-3.215
X4.07Y-3.515
X4.0798Y-2.675
X4.08Y-2.575
X4.08Y-2.875
X4.08Y-2.975
X4.17Y-3.215
X4.17Y-3.515
X4.1798Y-2.675
X4.18Y-2.575
X4.18Y-2.875
X4.18Y-2.975
X4.245Y-2.575
X4.245Y-2.675
X4.245Y-2.775
X4.2452Y-2.975
X4.27Y-3.215
X4.27Y-3.515
X4.345Y-2.575
X4.345Y-2.675
X4.345Y-2.775
X4.3452Y-2.975
X4.37Y-3.215
X4.37Y-3.515
T2
X4.07Y-3.635
X4.17Y-3.635
X4.27Y-3.635
X4.37Y-3.635
T0
M30
