%TF.GenerationSoftware,KiCad,Pcbnew,7.0.9*%
%TF.CreationDate,2024-02-08T13:00:58+01:00*%
%TF.ProjectId,signaux,7369676e-6175-4782-9e6b-696361645f70,rev?*%
%TF.SameCoordinates,Original*%
%TF.FileFunction,Soldermask,Bot*%
%TF.FilePolarity,Negative*%
%FSLAX46Y46*%
G04 Gerber Fmt 4.6, Leading zero omitted, Abs format (unit mm)*
G04 Created by KiCad (PCBNEW 7.0.9) date 2024-02-08 13:00:58*
%MOMM*%
%LPD*%
G01*
G04 APERTURE LIST*
G04 Aperture macros list*
%AMRoundRect*
0 Rectangle with rounded corners*
0 $1 Rounding radius*
0 $2 $3 $4 $5 $6 $7 $8 $9 X,Y pos of 4 corners*
0 Add a 4 corners polygon primitive as box body*
4,1,4,$2,$3,$4,$5,$6,$7,$8,$9,$2,$3,0*
0 Add four circle primitives for the rounded corners*
1,1,$1+$1,$2,$3*
1,1,$1+$1,$4,$5*
1,1,$1+$1,$6,$7*
1,1,$1+$1,$8,$9*
0 Add four rect primitives between the rounded corners*
20,1,$1+$1,$2,$3,$4,$5,0*
20,1,$1+$1,$4,$5,$6,$7,0*
20,1,$1+$1,$6,$7,$8,$9,0*
20,1,$1+$1,$8,$9,$2,$3,0*%
G04 Aperture macros list end*
%ADD10C,0.150000*%
%ADD11R,1.200000X1.800000*%
%ADD12RoundRect,0.300000X0.300000X0.600000X-0.300000X0.600000X-0.300000X-0.600000X0.300000X-0.600000X0*%
%ADD13RoundRect,0.300000X-0.300000X-0.600000X0.300000X-0.600000X0.300000X0.600000X-0.300000X0.600000X0*%
%ADD14RoundRect,0.250000X0.250000X0.750000X-0.250000X0.750000X-0.250000X-0.750000X0.250000X-0.750000X0*%
G04 APERTURE END LIST*
D10*
X104092333Y-77559819D02*
X104092333Y-78274104D01*
X104092333Y-78274104D02*
X104139952Y-78416961D01*
X104139952Y-78416961D02*
X104235190Y-78512200D01*
X104235190Y-78512200D02*
X104378047Y-78559819D01*
X104378047Y-78559819D02*
X104473285Y-78559819D01*
X103092333Y-78559819D02*
X103663761Y-78559819D01*
X103378047Y-78559819D02*
X103378047Y-77559819D01*
X103378047Y-77559819D02*
X103473285Y-77702676D01*
X103473285Y-77702676D02*
X103568523Y-77797914D01*
X103568523Y-77797914D02*
X103663761Y-77845533D01*
X110442333Y-77559819D02*
X110442333Y-78274104D01*
X110442333Y-78274104D02*
X110489952Y-78416961D01*
X110489952Y-78416961D02*
X110585190Y-78512200D01*
X110585190Y-78512200D02*
X110728047Y-78559819D01*
X110728047Y-78559819D02*
X110823285Y-78559819D01*
X109537571Y-77893152D02*
X109537571Y-78559819D01*
X109775666Y-77512200D02*
X110013761Y-78226485D01*
X110013761Y-78226485D02*
X109394714Y-78226485D01*
D11*
%TO.C,DO/V1*%
X110368000Y-75565000D03*
D12*
X107828000Y-75565000D03*
%TD*%
D11*
%TO.C,DR2*%
X107823000Y-67945000D03*
D13*
X110363000Y-67945000D03*
%TD*%
D11*
%TO.C,DG1*%
X106172000Y-65405000D03*
D12*
X103632000Y-65405000D03*
%TD*%
D11*
%TO.C,DR1*%
X103627000Y-67945000D03*
D13*
X106167000Y-67945000D03*
%TD*%
D11*
%TO.C,DO/R1*%
X106172000Y-75565000D03*
D12*
X103632000Y-75565000D03*
%TD*%
D11*
%TO.C,DG2*%
X110363000Y-65405000D03*
D12*
X107823000Y-65405000D03*
%TD*%
D11*
%TO.C,DW2*%
X107823000Y-70485000D03*
D13*
X110363000Y-70485000D03*
%TD*%
D11*
%TO.C,DW1*%
X103632000Y-73025000D03*
D13*
X106172000Y-73025000D03*
%TD*%
D14*
%TO.C,J1*%
X105918000Y-78232000D03*
%TD*%
%TO.C,J4*%
X108077000Y-78232000D03*
%TD*%
M02*
