%TF.GenerationSoftware,KiCad,Pcbnew,7.0.9*%
%TF.CreationDate,2024-02-08T13:00:31+01:00*%
%TF.ProjectId,signaux,7369676e-6175-4782-9e6b-696361645f70,rev?*%
%TF.SameCoordinates,Original*%
%TF.FileFunction,Drillmap*%
%TF.FilePolarity,Positive*%
%FSLAX45Y45*%
G04 Gerber Fmt 4.5, Leading zero omitted, Abs format (unit mm)*
G04 Created by KiCad (PCBNEW 7.0.9) date 2024-02-08 13:00:31*
%MOMM*%
%LPD*%
G01*
G04 APERTURE LIST*
%ADD10C,0.100000*%
%ADD11C,0.200000*%
G04 APERTURE END LIST*
D10*
X10274300Y-6413500D02*
X11125200Y-6413500D01*
X11125200Y-7950200D01*
X10274300Y-7950200D01*
X10274300Y-6413500D01*
D11*
D10*
X10327700Y-6759500D02*
X10397700Y-6829500D01*
X10397700Y-6759500D02*
X10327700Y-6829500D01*
X10328200Y-6505500D02*
X10398200Y-6575500D01*
X10398200Y-6505500D02*
X10328200Y-6575500D01*
X10328200Y-7267500D02*
X10398200Y-7337500D01*
X10398200Y-7267500D02*
X10328200Y-7337500D01*
X10328200Y-7521500D02*
X10398200Y-7591500D01*
X10398200Y-7521500D02*
X10328200Y-7591500D01*
X10581700Y-6759500D02*
X10651700Y-6829500D01*
X10651700Y-6759500D02*
X10581700Y-6829500D01*
X10582200Y-6505500D02*
X10652200Y-6575500D01*
X10652200Y-6505500D02*
X10582200Y-6575500D01*
X10582200Y-7267500D02*
X10652200Y-7337500D01*
X10652200Y-7267500D02*
X10582200Y-7337500D01*
X10582200Y-7521500D02*
X10652200Y-7591500D01*
X10652200Y-7521500D02*
X10582200Y-7591500D01*
X10747300Y-6505500D02*
X10817300Y-6575500D01*
X10817300Y-6505500D02*
X10747300Y-6575500D01*
X10747300Y-6759500D02*
X10817300Y-6829500D01*
X10817300Y-6759500D02*
X10747300Y-6829500D01*
X10747300Y-7013500D02*
X10817300Y-7083500D01*
X10817300Y-7013500D02*
X10747300Y-7083500D01*
X10747800Y-7521500D02*
X10817800Y-7591500D01*
X10817800Y-7521500D02*
X10747800Y-7591500D01*
X11001300Y-6505500D02*
X11071300Y-6575500D01*
X11071300Y-6505500D02*
X11001300Y-6575500D01*
X11001300Y-6759500D02*
X11071300Y-6829500D01*
X11071300Y-6759500D02*
X11001300Y-6829500D01*
X11001300Y-7013500D02*
X11071300Y-7083500D01*
X11071300Y-7013500D02*
X11001300Y-7083500D01*
X11001800Y-7521500D02*
X11071800Y-7591500D01*
X11071800Y-7521500D02*
X11001800Y-7591500D01*
D11*
X10530077Y-8266684D02*
X10530077Y-8066684D01*
X10530077Y-8066684D02*
X10577696Y-8066684D01*
X10577696Y-8066684D02*
X10606267Y-8076208D01*
X10606267Y-8076208D02*
X10625315Y-8095255D01*
X10625315Y-8095255D02*
X10634839Y-8114303D01*
X10634839Y-8114303D02*
X10644363Y-8152398D01*
X10644363Y-8152398D02*
X10644363Y-8180969D01*
X10644363Y-8180969D02*
X10634839Y-8219065D01*
X10634839Y-8219065D02*
X10625315Y-8238112D01*
X10625315Y-8238112D02*
X10606267Y-8257160D01*
X10606267Y-8257160D02*
X10577696Y-8266684D01*
X10577696Y-8266684D02*
X10530077Y-8266684D01*
X10730077Y-8266684D02*
X10730077Y-8133350D01*
X10730077Y-8171446D02*
X10739601Y-8152398D01*
X10739601Y-8152398D02*
X10749124Y-8142874D01*
X10749124Y-8142874D02*
X10768172Y-8133350D01*
X10768172Y-8133350D02*
X10787220Y-8133350D01*
X10853886Y-8266684D02*
X10853886Y-8133350D01*
X10853886Y-8066684D02*
X10844363Y-8076208D01*
X10844363Y-8076208D02*
X10853886Y-8085731D01*
X10853886Y-8085731D02*
X10863410Y-8076208D01*
X10863410Y-8076208D02*
X10853886Y-8066684D01*
X10853886Y-8066684D02*
X10853886Y-8085731D01*
X10977696Y-8266684D02*
X10958648Y-8257160D01*
X10958648Y-8257160D02*
X10949124Y-8238112D01*
X10949124Y-8238112D02*
X10949124Y-8066684D01*
X11082458Y-8266684D02*
X11063410Y-8257160D01*
X11063410Y-8257160D02*
X11053886Y-8238112D01*
X11053886Y-8238112D02*
X11053886Y-8066684D01*
X11311029Y-8266684D02*
X11311029Y-8066684D01*
X11311029Y-8066684D02*
X11377696Y-8209541D01*
X11377696Y-8209541D02*
X11444362Y-8066684D01*
X11444362Y-8066684D02*
X11444362Y-8266684D01*
X11625315Y-8266684D02*
X11625315Y-8161922D01*
X11625315Y-8161922D02*
X11615791Y-8142874D01*
X11615791Y-8142874D02*
X11596743Y-8133350D01*
X11596743Y-8133350D02*
X11558648Y-8133350D01*
X11558648Y-8133350D02*
X11539601Y-8142874D01*
X11625315Y-8257160D02*
X11606267Y-8266684D01*
X11606267Y-8266684D02*
X11558648Y-8266684D01*
X11558648Y-8266684D02*
X11539601Y-8257160D01*
X11539601Y-8257160D02*
X11530077Y-8238112D01*
X11530077Y-8238112D02*
X11530077Y-8219065D01*
X11530077Y-8219065D02*
X11539601Y-8200017D01*
X11539601Y-8200017D02*
X11558648Y-8190493D01*
X11558648Y-8190493D02*
X11606267Y-8190493D01*
X11606267Y-8190493D02*
X11625315Y-8180969D01*
X11720553Y-8133350D02*
X11720553Y-8333350D01*
X11720553Y-8142874D02*
X11739601Y-8133350D01*
X11739601Y-8133350D02*
X11777696Y-8133350D01*
X11777696Y-8133350D02*
X11796743Y-8142874D01*
X11796743Y-8142874D02*
X11806267Y-8152398D01*
X11806267Y-8152398D02*
X11815791Y-8171446D01*
X11815791Y-8171446D02*
X11815791Y-8228588D01*
X11815791Y-8228588D02*
X11806267Y-8247636D01*
X11806267Y-8247636D02*
X11796743Y-8257160D01*
X11796743Y-8257160D02*
X11777696Y-8266684D01*
X11777696Y-8266684D02*
X11739601Y-8266684D01*
X11739601Y-8266684D02*
X11720553Y-8257160D01*
X11901505Y-8247636D02*
X11911029Y-8257160D01*
X11911029Y-8257160D02*
X11901505Y-8266684D01*
X11901505Y-8266684D02*
X11891982Y-8257160D01*
X11891982Y-8257160D02*
X11901505Y-8247636D01*
X11901505Y-8247636D02*
X11901505Y-8266684D01*
X11901505Y-8142874D02*
X11911029Y-8152398D01*
X11911029Y-8152398D02*
X11901505Y-8161922D01*
X11901505Y-8161922D02*
X11891982Y-8152398D01*
X11891982Y-8152398D02*
X11901505Y-8142874D01*
X11901505Y-8142874D02*
X11901505Y-8161922D01*
D10*
X10199300Y-8560200D02*
X10269300Y-8630200D01*
X10269300Y-8560200D02*
X10199300Y-8630200D01*
D11*
X10568172Y-8486684D02*
X10587220Y-8486684D01*
X10587220Y-8486684D02*
X10606267Y-8496208D01*
X10606267Y-8496208D02*
X10615791Y-8505731D01*
X10615791Y-8505731D02*
X10625315Y-8524779D01*
X10625315Y-8524779D02*
X10634839Y-8562874D01*
X10634839Y-8562874D02*
X10634839Y-8610493D01*
X10634839Y-8610493D02*
X10625315Y-8648589D01*
X10625315Y-8648589D02*
X10615791Y-8667636D01*
X10615791Y-8667636D02*
X10606267Y-8677160D01*
X10606267Y-8677160D02*
X10587220Y-8686684D01*
X10587220Y-8686684D02*
X10568172Y-8686684D01*
X10568172Y-8686684D02*
X10549124Y-8677160D01*
X10549124Y-8677160D02*
X10539601Y-8667636D01*
X10539601Y-8667636D02*
X10530077Y-8648589D01*
X10530077Y-8648589D02*
X10520553Y-8610493D01*
X10520553Y-8610493D02*
X10520553Y-8562874D01*
X10520553Y-8562874D02*
X10530077Y-8524779D01*
X10530077Y-8524779D02*
X10539601Y-8505731D01*
X10539601Y-8505731D02*
X10549124Y-8496208D01*
X10549124Y-8496208D02*
X10568172Y-8486684D01*
X10720553Y-8667636D02*
X10730077Y-8677160D01*
X10730077Y-8677160D02*
X10720553Y-8686684D01*
X10720553Y-8686684D02*
X10711029Y-8677160D01*
X10711029Y-8677160D02*
X10720553Y-8667636D01*
X10720553Y-8667636D02*
X10720553Y-8686684D01*
X10796744Y-8486684D02*
X10930077Y-8486684D01*
X10930077Y-8486684D02*
X10844363Y-8686684D01*
X11044363Y-8486684D02*
X11063410Y-8486684D01*
X11063410Y-8486684D02*
X11082458Y-8496208D01*
X11082458Y-8496208D02*
X11091982Y-8505731D01*
X11091982Y-8505731D02*
X11101505Y-8524779D01*
X11101505Y-8524779D02*
X11111029Y-8562874D01*
X11111029Y-8562874D02*
X11111029Y-8610493D01*
X11111029Y-8610493D02*
X11101505Y-8648589D01*
X11101505Y-8648589D02*
X11091982Y-8667636D01*
X11091982Y-8667636D02*
X11082458Y-8677160D01*
X11082458Y-8677160D02*
X11063410Y-8686684D01*
X11063410Y-8686684D02*
X11044363Y-8686684D01*
X11044363Y-8686684D02*
X11025315Y-8677160D01*
X11025315Y-8677160D02*
X11015791Y-8667636D01*
X11015791Y-8667636D02*
X11006267Y-8648589D01*
X11006267Y-8648589D02*
X10996744Y-8610493D01*
X10996744Y-8610493D02*
X10996744Y-8562874D01*
X10996744Y-8562874D02*
X11006267Y-8524779D01*
X11006267Y-8524779D02*
X11015791Y-8505731D01*
X11015791Y-8505731D02*
X11025315Y-8496208D01*
X11025315Y-8496208D02*
X11044363Y-8486684D01*
X11234839Y-8486684D02*
X11253886Y-8486684D01*
X11253886Y-8486684D02*
X11272934Y-8496208D01*
X11272934Y-8496208D02*
X11282458Y-8505731D01*
X11282458Y-8505731D02*
X11291982Y-8524779D01*
X11291982Y-8524779D02*
X11301505Y-8562874D01*
X11301505Y-8562874D02*
X11301505Y-8610493D01*
X11301505Y-8610493D02*
X11291982Y-8648589D01*
X11291982Y-8648589D02*
X11282458Y-8667636D01*
X11282458Y-8667636D02*
X11272934Y-8677160D01*
X11272934Y-8677160D02*
X11253886Y-8686684D01*
X11253886Y-8686684D02*
X11234839Y-8686684D01*
X11234839Y-8686684D02*
X11215791Y-8677160D01*
X11215791Y-8677160D02*
X11206267Y-8667636D01*
X11206267Y-8667636D02*
X11196743Y-8648589D01*
X11196743Y-8648589D02*
X11187220Y-8610493D01*
X11187220Y-8610493D02*
X11187220Y-8562874D01*
X11187220Y-8562874D02*
X11196743Y-8524779D01*
X11196743Y-8524779D02*
X11206267Y-8505731D01*
X11206267Y-8505731D02*
X11215791Y-8496208D01*
X11215791Y-8496208D02*
X11234839Y-8486684D01*
X11387220Y-8686684D02*
X11387220Y-8553350D01*
X11387220Y-8572398D02*
X11396743Y-8562874D01*
X11396743Y-8562874D02*
X11415791Y-8553350D01*
X11415791Y-8553350D02*
X11444363Y-8553350D01*
X11444363Y-8553350D02*
X11463410Y-8562874D01*
X11463410Y-8562874D02*
X11472934Y-8581922D01*
X11472934Y-8581922D02*
X11472934Y-8686684D01*
X11472934Y-8581922D02*
X11482458Y-8562874D01*
X11482458Y-8562874D02*
X11501505Y-8553350D01*
X11501505Y-8553350D02*
X11530077Y-8553350D01*
X11530077Y-8553350D02*
X11549124Y-8562874D01*
X11549124Y-8562874D02*
X11558648Y-8581922D01*
X11558648Y-8581922D02*
X11558648Y-8686684D01*
X11653886Y-8686684D02*
X11653886Y-8553350D01*
X11653886Y-8572398D02*
X11663410Y-8562874D01*
X11663410Y-8562874D02*
X11682458Y-8553350D01*
X11682458Y-8553350D02*
X11711029Y-8553350D01*
X11711029Y-8553350D02*
X11730077Y-8562874D01*
X11730077Y-8562874D02*
X11739601Y-8581922D01*
X11739601Y-8581922D02*
X11739601Y-8686684D01*
X11739601Y-8581922D02*
X11749124Y-8562874D01*
X11749124Y-8562874D02*
X11768172Y-8553350D01*
X11768172Y-8553350D02*
X11796743Y-8553350D01*
X11796743Y-8553350D02*
X11815791Y-8562874D01*
X11815791Y-8562874D02*
X11825315Y-8581922D01*
X11825315Y-8581922D02*
X11825315Y-8686684D01*
X12215791Y-8477160D02*
X12044363Y-8734303D01*
X12472934Y-8486684D02*
X12491982Y-8486684D01*
X12491982Y-8486684D02*
X12511029Y-8496208D01*
X12511029Y-8496208D02*
X12520553Y-8505731D01*
X12520553Y-8505731D02*
X12530077Y-8524779D01*
X12530077Y-8524779D02*
X12539601Y-8562874D01*
X12539601Y-8562874D02*
X12539601Y-8610493D01*
X12539601Y-8610493D02*
X12530077Y-8648589D01*
X12530077Y-8648589D02*
X12520553Y-8667636D01*
X12520553Y-8667636D02*
X12511029Y-8677160D01*
X12511029Y-8677160D02*
X12491982Y-8686684D01*
X12491982Y-8686684D02*
X12472934Y-8686684D01*
X12472934Y-8686684D02*
X12453886Y-8677160D01*
X12453886Y-8677160D02*
X12444363Y-8667636D01*
X12444363Y-8667636D02*
X12434839Y-8648589D01*
X12434839Y-8648589D02*
X12425315Y-8610493D01*
X12425315Y-8610493D02*
X12425315Y-8562874D01*
X12425315Y-8562874D02*
X12434839Y-8524779D01*
X12434839Y-8524779D02*
X12444363Y-8505731D01*
X12444363Y-8505731D02*
X12453886Y-8496208D01*
X12453886Y-8496208D02*
X12472934Y-8486684D01*
X12625315Y-8667636D02*
X12634839Y-8677160D01*
X12634839Y-8677160D02*
X12625315Y-8686684D01*
X12625315Y-8686684D02*
X12615791Y-8677160D01*
X12615791Y-8677160D02*
X12625315Y-8667636D01*
X12625315Y-8667636D02*
X12625315Y-8686684D01*
X12758648Y-8486684D02*
X12777696Y-8486684D01*
X12777696Y-8486684D02*
X12796744Y-8496208D01*
X12796744Y-8496208D02*
X12806267Y-8505731D01*
X12806267Y-8505731D02*
X12815791Y-8524779D01*
X12815791Y-8524779D02*
X12825315Y-8562874D01*
X12825315Y-8562874D02*
X12825315Y-8610493D01*
X12825315Y-8610493D02*
X12815791Y-8648589D01*
X12815791Y-8648589D02*
X12806267Y-8667636D01*
X12806267Y-8667636D02*
X12796744Y-8677160D01*
X12796744Y-8677160D02*
X12777696Y-8686684D01*
X12777696Y-8686684D02*
X12758648Y-8686684D01*
X12758648Y-8686684D02*
X12739601Y-8677160D01*
X12739601Y-8677160D02*
X12730077Y-8667636D01*
X12730077Y-8667636D02*
X12720553Y-8648589D01*
X12720553Y-8648589D02*
X12711029Y-8610493D01*
X12711029Y-8610493D02*
X12711029Y-8562874D01*
X12711029Y-8562874D02*
X12720553Y-8524779D01*
X12720553Y-8524779D02*
X12730077Y-8505731D01*
X12730077Y-8505731D02*
X12739601Y-8496208D01*
X12739601Y-8496208D02*
X12758648Y-8486684D01*
X12901506Y-8505731D02*
X12911029Y-8496208D01*
X12911029Y-8496208D02*
X12930077Y-8486684D01*
X12930077Y-8486684D02*
X12977696Y-8486684D01*
X12977696Y-8486684D02*
X12996744Y-8496208D01*
X12996744Y-8496208D02*
X13006267Y-8505731D01*
X13006267Y-8505731D02*
X13015791Y-8524779D01*
X13015791Y-8524779D02*
X13015791Y-8543827D01*
X13015791Y-8543827D02*
X13006267Y-8572398D01*
X13006267Y-8572398D02*
X12891982Y-8686684D01*
X12891982Y-8686684D02*
X13015791Y-8686684D01*
X13082458Y-8486684D02*
X13215791Y-8486684D01*
X13215791Y-8486684D02*
X13130077Y-8686684D01*
X13377696Y-8486684D02*
X13339601Y-8486684D01*
X13339601Y-8486684D02*
X13320553Y-8496208D01*
X13320553Y-8496208D02*
X13311029Y-8505731D01*
X13311029Y-8505731D02*
X13291982Y-8534303D01*
X13291982Y-8534303D02*
X13282458Y-8572398D01*
X13282458Y-8572398D02*
X13282458Y-8648589D01*
X13282458Y-8648589D02*
X13291982Y-8667636D01*
X13291982Y-8667636D02*
X13301506Y-8677160D01*
X13301506Y-8677160D02*
X13320553Y-8686684D01*
X13320553Y-8686684D02*
X13358648Y-8686684D01*
X13358648Y-8686684D02*
X13377696Y-8677160D01*
X13377696Y-8677160D02*
X13387220Y-8667636D01*
X13387220Y-8667636D02*
X13396744Y-8648589D01*
X13396744Y-8648589D02*
X13396744Y-8600970D01*
X13396744Y-8600970D02*
X13387220Y-8581922D01*
X13387220Y-8581922D02*
X13377696Y-8572398D01*
X13377696Y-8572398D02*
X13358648Y-8562874D01*
X13358648Y-8562874D02*
X13320553Y-8562874D01*
X13320553Y-8562874D02*
X13301506Y-8572398D01*
X13301506Y-8572398D02*
X13291982Y-8581922D01*
X13291982Y-8581922D02*
X13282458Y-8600970D01*
X13472934Y-8486684D02*
X13472934Y-8524779D01*
X13549125Y-8486684D02*
X13549125Y-8524779D01*
X13844363Y-8762874D02*
X13834839Y-8753350D01*
X13834839Y-8753350D02*
X13815791Y-8724779D01*
X13815791Y-8724779D02*
X13806268Y-8705731D01*
X13806268Y-8705731D02*
X13796744Y-8677160D01*
X13796744Y-8677160D02*
X13787220Y-8629541D01*
X13787220Y-8629541D02*
X13787220Y-8591446D01*
X13787220Y-8591446D02*
X13796744Y-8543827D01*
X13796744Y-8543827D02*
X13806268Y-8515255D01*
X13806268Y-8515255D02*
X13815791Y-8496208D01*
X13815791Y-8496208D02*
X13834839Y-8467636D01*
X13834839Y-8467636D02*
X13844363Y-8458112D01*
X14025315Y-8686684D02*
X13911029Y-8686684D01*
X13968172Y-8686684D02*
X13968172Y-8486684D01*
X13968172Y-8486684D02*
X13949125Y-8515255D01*
X13949125Y-8515255D02*
X13930077Y-8534303D01*
X13930077Y-8534303D02*
X13911029Y-8543827D01*
X14196744Y-8486684D02*
X14158648Y-8486684D01*
X14158648Y-8486684D02*
X14139601Y-8496208D01*
X14139601Y-8496208D02*
X14130077Y-8505731D01*
X14130077Y-8505731D02*
X14111029Y-8534303D01*
X14111029Y-8534303D02*
X14101506Y-8572398D01*
X14101506Y-8572398D02*
X14101506Y-8648589D01*
X14101506Y-8648589D02*
X14111029Y-8667636D01*
X14111029Y-8667636D02*
X14120553Y-8677160D01*
X14120553Y-8677160D02*
X14139601Y-8686684D01*
X14139601Y-8686684D02*
X14177696Y-8686684D01*
X14177696Y-8686684D02*
X14196744Y-8677160D01*
X14196744Y-8677160D02*
X14206268Y-8667636D01*
X14206268Y-8667636D02*
X14215791Y-8648589D01*
X14215791Y-8648589D02*
X14215791Y-8600970D01*
X14215791Y-8600970D02*
X14206268Y-8581922D01*
X14206268Y-8581922D02*
X14196744Y-8572398D01*
X14196744Y-8572398D02*
X14177696Y-8562874D01*
X14177696Y-8562874D02*
X14139601Y-8562874D01*
X14139601Y-8562874D02*
X14120553Y-8572398D01*
X14120553Y-8572398D02*
X14111029Y-8581922D01*
X14111029Y-8581922D02*
X14101506Y-8600970D01*
X14453887Y-8686684D02*
X14453887Y-8486684D01*
X14539601Y-8686684D02*
X14539601Y-8581922D01*
X14539601Y-8581922D02*
X14530077Y-8562874D01*
X14530077Y-8562874D02*
X14511030Y-8553350D01*
X14511030Y-8553350D02*
X14482458Y-8553350D01*
X14482458Y-8553350D02*
X14463410Y-8562874D01*
X14463410Y-8562874D02*
X14453887Y-8572398D01*
X14663410Y-8686684D02*
X14644363Y-8677160D01*
X14644363Y-8677160D02*
X14634839Y-8667636D01*
X14634839Y-8667636D02*
X14625315Y-8648589D01*
X14625315Y-8648589D02*
X14625315Y-8591446D01*
X14625315Y-8591446D02*
X14634839Y-8572398D01*
X14634839Y-8572398D02*
X14644363Y-8562874D01*
X14644363Y-8562874D02*
X14663410Y-8553350D01*
X14663410Y-8553350D02*
X14691982Y-8553350D01*
X14691982Y-8553350D02*
X14711030Y-8562874D01*
X14711030Y-8562874D02*
X14720553Y-8572398D01*
X14720553Y-8572398D02*
X14730077Y-8591446D01*
X14730077Y-8591446D02*
X14730077Y-8648589D01*
X14730077Y-8648589D02*
X14720553Y-8667636D01*
X14720553Y-8667636D02*
X14711030Y-8677160D01*
X14711030Y-8677160D02*
X14691982Y-8686684D01*
X14691982Y-8686684D02*
X14663410Y-8686684D01*
X14844363Y-8686684D02*
X14825315Y-8677160D01*
X14825315Y-8677160D02*
X14815791Y-8658112D01*
X14815791Y-8658112D02*
X14815791Y-8486684D01*
X14996744Y-8677160D02*
X14977696Y-8686684D01*
X14977696Y-8686684D02*
X14939601Y-8686684D01*
X14939601Y-8686684D02*
X14920553Y-8677160D01*
X14920553Y-8677160D02*
X14911030Y-8658112D01*
X14911030Y-8658112D02*
X14911030Y-8581922D01*
X14911030Y-8581922D02*
X14920553Y-8562874D01*
X14920553Y-8562874D02*
X14939601Y-8553350D01*
X14939601Y-8553350D02*
X14977696Y-8553350D01*
X14977696Y-8553350D02*
X14996744Y-8562874D01*
X14996744Y-8562874D02*
X15006268Y-8581922D01*
X15006268Y-8581922D02*
X15006268Y-8600970D01*
X15006268Y-8600970D02*
X14911030Y-8620017D01*
X15082458Y-8677160D02*
X15101506Y-8686684D01*
X15101506Y-8686684D02*
X15139601Y-8686684D01*
X15139601Y-8686684D02*
X15158649Y-8677160D01*
X15158649Y-8677160D02*
X15168172Y-8658112D01*
X15168172Y-8658112D02*
X15168172Y-8648589D01*
X15168172Y-8648589D02*
X15158649Y-8629541D01*
X15158649Y-8629541D02*
X15139601Y-8620017D01*
X15139601Y-8620017D02*
X15111030Y-8620017D01*
X15111030Y-8620017D02*
X15091982Y-8610493D01*
X15091982Y-8610493D02*
X15082458Y-8591446D01*
X15082458Y-8591446D02*
X15082458Y-8581922D01*
X15082458Y-8581922D02*
X15091982Y-8562874D01*
X15091982Y-8562874D02*
X15111030Y-8553350D01*
X15111030Y-8553350D02*
X15139601Y-8553350D01*
X15139601Y-8553350D02*
X15158649Y-8562874D01*
X15234839Y-8762874D02*
X15244363Y-8753350D01*
X15244363Y-8753350D02*
X15263411Y-8724779D01*
X15263411Y-8724779D02*
X15272934Y-8705731D01*
X15272934Y-8705731D02*
X15282458Y-8677160D01*
X15282458Y-8677160D02*
X15291982Y-8629541D01*
X15291982Y-8629541D02*
X15291982Y-8591446D01*
X15291982Y-8591446D02*
X15282458Y-8543827D01*
X15282458Y-8543827D02*
X15272934Y-8515255D01*
X15272934Y-8515255D02*
X15263411Y-8496208D01*
X15263411Y-8496208D02*
X15244363Y-8467636D01*
X15244363Y-8467636D02*
X15234839Y-8458112D01*
M02*
