M48
; DRILL file {KiCad 7.0.9} date Saturday, March 09, 2024 at 05:42:21 PM
; FORMAT={-:-/ absolute / inch / decimal}
; #@! TF.CreationDate,2024-03-09T17:42:21+01:00
; #@! TF.GenerationSoftware,Kicad,Pcbnew,7.0.9
; #@! TF.FileFunction,Plated,1,2,PTH
FMAT,2
INCH
; #@! TA.AperFunction,Plated,PTH,ComponentDrill
T1C0.0276
; #@! TA.AperFunction,Plated,PTH,ComponentDrill
T2C0.0354
%
G90
G05
T1
X4.06Y-3.235
X4.06Y-3.535
X4.0798Y-2.675
X4.08Y-2.575
X4.08Y-2.875
X4.08Y-2.975
X4.16Y-3.235
X4.16Y-3.535
X4.1798Y-2.675
X4.18Y-2.575
X4.18Y-2.875
X4.18Y-2.975
X4.245Y-2.575
X4.245Y-2.675
X4.245Y-2.775
X4.245Y-2.975
X4.26Y-3.235
X4.26Y-3.535
X4.345Y-2.575
X4.345Y-2.675
X4.345Y-2.775
X4.345Y-2.975
X4.36Y-3.235
X4.36Y-3.535
T2
X4.055Y-3.95
X4.06Y-3.645
X4.155Y-3.95
X4.16Y-3.645
X4.255Y-3.95
X4.26Y-3.645
X4.355Y-3.95
X4.36Y-3.645
T0
M30
