%TF.GenerationSoftware,KiCad,Pcbnew,7.0.9*%
%TF.CreationDate,2024-03-09T17:06:54+01:00*%
%TF.ProjectId,signaux,7369676e-6175-4782-9e6b-696361645f70,rev?*%
%TF.SameCoordinates,Original*%
%TF.FileFunction,Soldermask,Top*%
%TF.FilePolarity,Negative*%
%FSLAX46Y46*%
G04 Gerber Fmt 4.6, Leading zero omitted, Abs format (unit mm)*
G04 Created by KiCad (PCBNEW 7.0.9) date 2024-03-09 17:06:54*
%MOMM*%
%LPD*%
G01*
G04 APERTURE LIST*
G04 Aperture macros list*
%AMRoundRect*
0 Rectangle with rounded corners*
0 $1 Rounding radius*
0 $2 $3 $4 $5 $6 $7 $8 $9 X,Y pos of 4 corners*
0 Add a 4 corners polygon primitive as box body*
4,1,4,$2,$3,$4,$5,$6,$7,$8,$9,$2,$3,0*
0 Add four circle primitives for the rounded corners*
1,1,$1+$1,$2,$3*
1,1,$1+$1,$4,$5*
1,1,$1+$1,$6,$7*
1,1,$1+$1,$8,$9*
0 Add four rect primitives between the rounded corners*
20,1,$1+$1,$2,$3,$4,$5,0*
20,1,$1+$1,$4,$5,$6,$7,0*
20,1,$1+$1,$6,$7,$8,$9,0*
20,1,$1+$1,$8,$9,$2,$3,0*%
G04 Aperture macros list end*
%ADD10C,0.150000*%
%ADD11R,1.200000X1.800000*%
%ADD12RoundRect,0.300000X-0.300000X-0.600000X0.300000X-0.600000X0.300000X0.600000X-0.300000X0.600000X0*%
%ADD13RoundRect,0.250000X-0.250000X-0.750000X0.250000X-0.750000X0.250000X0.750000X-0.250000X0.750000X0*%
%ADD14RoundRect,0.300000X0.300000X0.600000X-0.300000X0.600000X-0.300000X-0.600000X0.300000X-0.600000X0*%
G04 APERTURE END LIST*
D10*
X108874160Y-65735200D02*
X108969398Y-65782819D01*
X108969398Y-65782819D02*
X109159874Y-65782819D01*
X109159874Y-65782819D02*
X109255112Y-65735200D01*
X109255112Y-65735200D02*
X109302731Y-65639961D01*
X109302731Y-65639961D02*
X109302731Y-65592342D01*
X109302731Y-65592342D02*
X109255112Y-65497104D01*
X109255112Y-65497104D02*
X109159874Y-65449485D01*
X109159874Y-65449485D02*
X109017017Y-65449485D01*
X109017017Y-65449485D02*
X108921779Y-65401866D01*
X108921779Y-65401866D02*
X108874160Y-65306628D01*
X108874160Y-65306628D02*
X108874160Y-65259009D01*
X108874160Y-65259009D02*
X108921779Y-65163771D01*
X108921779Y-65163771D02*
X109017017Y-65116152D01*
X109017017Y-65116152D02*
X109159874Y-65116152D01*
X109159874Y-65116152D02*
X109255112Y-65163771D01*
X107302541Y-72863152D02*
X107540636Y-73529819D01*
X107540636Y-73529819D02*
X107778731Y-72863152D01*
X108064446Y-72529819D02*
X108683493Y-72529819D01*
X108683493Y-72529819D02*
X108350160Y-72910771D01*
X108350160Y-72910771D02*
X108493017Y-72910771D01*
X108493017Y-72910771D02*
X108588255Y-72958390D01*
X108588255Y-72958390D02*
X108635874Y-73006009D01*
X108635874Y-73006009D02*
X108683493Y-73101247D01*
X108683493Y-73101247D02*
X108683493Y-73339342D01*
X108683493Y-73339342D02*
X108635874Y-73434580D01*
X108635874Y-73434580D02*
X108588255Y-73482200D01*
X108588255Y-73482200D02*
X108493017Y-73529819D01*
X108493017Y-73529819D02*
X108207303Y-73529819D01*
X108207303Y-73529819D02*
X108112065Y-73482200D01*
X108112065Y-73482200D02*
X108064446Y-73434580D01*
X104206922Y-70831152D02*
X104587874Y-70831152D01*
X104349779Y-71497819D02*
X104349779Y-70640676D01*
X104349779Y-70640676D02*
X104397398Y-70545438D01*
X104397398Y-70545438D02*
X104492636Y-70497819D01*
X104492636Y-70497819D02*
X104587874Y-70497819D01*
X104921208Y-71497819D02*
X104921208Y-70831152D01*
X104921208Y-71021628D02*
X104968827Y-70926390D01*
X104968827Y-70926390D02*
X105016446Y-70878771D01*
X105016446Y-70878771D02*
X105111684Y-70831152D01*
X105111684Y-70831152D02*
X105206922Y-70831152D01*
X105540256Y-70831152D02*
X105540256Y-71497819D01*
X105540256Y-70926390D02*
X105587875Y-70878771D01*
X105587875Y-70878771D02*
X105683113Y-70831152D01*
X105683113Y-70831152D02*
X105825970Y-70831152D01*
X105825970Y-70831152D02*
X105921208Y-70878771D01*
X105921208Y-70878771D02*
X105968827Y-70974009D01*
X105968827Y-70974009D02*
X105968827Y-71497819D01*
X106302161Y-70831152D02*
X106683113Y-70831152D01*
X106445018Y-70497819D02*
X106445018Y-71354961D01*
X106445018Y-71354961D02*
X106492637Y-71450200D01*
X106492637Y-71450200D02*
X106587875Y-71497819D01*
X106587875Y-71497819D02*
X106683113Y-71497819D01*
X109775666Y-77559819D02*
X109775666Y-78274104D01*
X109775666Y-78274104D02*
X109728047Y-78416961D01*
X109728047Y-78416961D02*
X109632809Y-78512200D01*
X109632809Y-78512200D02*
X109489952Y-78559819D01*
X109489952Y-78559819D02*
X109394714Y-78559819D01*
X110156619Y-77559819D02*
X110775666Y-77559819D01*
X110775666Y-77559819D02*
X110442333Y-77940771D01*
X110442333Y-77940771D02*
X110585190Y-77940771D01*
X110585190Y-77940771D02*
X110680428Y-77988390D01*
X110680428Y-77988390D02*
X110728047Y-78036009D01*
X110728047Y-78036009D02*
X110775666Y-78131247D01*
X110775666Y-78131247D02*
X110775666Y-78369342D01*
X110775666Y-78369342D02*
X110728047Y-78464580D01*
X110728047Y-78464580D02*
X110680428Y-78512200D01*
X110680428Y-78512200D02*
X110585190Y-78559819D01*
X110585190Y-78559819D02*
X110299476Y-78559819D01*
X110299476Y-78559819D02*
X110204238Y-78512200D01*
X110204238Y-78512200D02*
X110156619Y-78464580D01*
X103552666Y-77559819D02*
X103552666Y-78274104D01*
X103552666Y-78274104D02*
X103505047Y-78416961D01*
X103505047Y-78416961D02*
X103409809Y-78512200D01*
X103409809Y-78512200D02*
X103266952Y-78559819D01*
X103266952Y-78559819D02*
X103171714Y-78559819D01*
X103981238Y-77655057D02*
X104028857Y-77607438D01*
X104028857Y-77607438D02*
X104124095Y-77559819D01*
X104124095Y-77559819D02*
X104362190Y-77559819D01*
X104362190Y-77559819D02*
X104457428Y-77607438D01*
X104457428Y-77607438D02*
X104505047Y-77655057D01*
X104505047Y-77655057D02*
X104552666Y-77750295D01*
X104552666Y-77750295D02*
X104552666Y-77845533D01*
X104552666Y-77845533D02*
X104505047Y-77988390D01*
X104505047Y-77988390D02*
X103933619Y-78559819D01*
X103933619Y-78559819D02*
X104552666Y-78559819D01*
D11*
%TO.C,DO/V1*%
X107823000Y-75565000D03*
D12*
X110363000Y-75565000D03*
%TD*%
D13*
%TO.C,J3*%
X108077000Y-78232000D03*
%TD*%
D11*
%TO.C,DR2*%
X107823000Y-67945000D03*
D12*
X110363000Y-67945000D03*
%TD*%
D11*
%TO.C,DG1*%
X106172000Y-65405000D03*
D14*
X103632000Y-65405000D03*
%TD*%
D11*
%TO.C,DR1*%
X103627000Y-67945000D03*
D12*
X106167000Y-67945000D03*
%TD*%
D11*
%TO.C,DO/R1*%
X103632000Y-75565000D03*
D12*
X106172000Y-75565000D03*
%TD*%
D11*
%TO.C,DG2*%
X110363000Y-65405000D03*
D14*
X107823000Y-65405000D03*
%TD*%
D13*
%TO.C,J2*%
X105918000Y-78232000D03*
%TD*%
D11*
%TO.C,DW2*%
X107823000Y-70485000D03*
D12*
X110363000Y-70485000D03*
%TD*%
D11*
%TO.C,DW1*%
X103632000Y-73025000D03*
D12*
X106172000Y-73025000D03*
%TD*%
M02*
