%TF.GenerationSoftware,KiCad,Pcbnew,7.0.9*%
%TF.CreationDate,2024-03-09T17:06:54+01:00*%
%TF.ProjectId,signaux,7369676e-6175-4782-9e6b-696361645f70,rev?*%
%TF.SameCoordinates,Original*%
%TF.FileFunction,Soldermask,Bot*%
%TF.FilePolarity,Negative*%
%FSLAX46Y46*%
G04 Gerber Fmt 4.6, Leading zero omitted, Abs format (unit mm)*
G04 Created by KiCad (PCBNEW 7.0.9) date 2024-03-09 17:06:54*
%MOMM*%
%LPD*%
G01*
G04 APERTURE LIST*
G04 Aperture macros list*
%AMRoundRect*
0 Rectangle with rounded corners*
0 $1 Rounding radius*
0 $2 $3 $4 $5 $6 $7 $8 $9 X,Y pos of 4 corners*
0 Add a 4 corners polygon primitive as box body*
4,1,4,$2,$3,$4,$5,$6,$7,$8,$9,$2,$3,0*
0 Add four circle primitives for the rounded corners*
1,1,$1+$1,$2,$3*
1,1,$1+$1,$4,$5*
1,1,$1+$1,$6,$7*
1,1,$1+$1,$8,$9*
0 Add four rect primitives between the rounded corners*
20,1,$1+$1,$2,$3,$4,$5,0*
20,1,$1+$1,$4,$5,$6,$7,0*
20,1,$1+$1,$6,$7,$8,$9,0*
20,1,$1+$1,$8,$9,$2,$3,0*%
G04 Aperture macros list end*
%ADD10C,0.150000*%
%ADD11R,1.200000X1.800000*%
%ADD12RoundRect,0.300000X-0.300000X-0.600000X0.300000X-0.600000X0.300000X0.600000X-0.300000X0.600000X0*%
%ADD13RoundRect,0.300000X0.300000X0.600000X-0.300000X0.600000X-0.300000X-0.600000X0.300000X-0.600000X0*%
%ADD14RoundRect,0.250000X0.250000X0.750000X-0.250000X0.750000X-0.250000X-0.750000X0.250000X-0.750000X0*%
G04 APERTURE END LIST*
D10*
X106343220Y-70069152D02*
X106343220Y-70926295D01*
X106343220Y-70926295D02*
X106390839Y-71021533D01*
X106390839Y-71021533D02*
X106486077Y-71069152D01*
X106486077Y-71069152D02*
X106533696Y-71069152D01*
X106343220Y-69735819D02*
X106390839Y-69783438D01*
X106390839Y-69783438D02*
X106343220Y-69831057D01*
X106343220Y-69831057D02*
X106295601Y-69783438D01*
X106295601Y-69783438D02*
X106343220Y-69735819D01*
X106343220Y-69735819D02*
X106343220Y-69831057D01*
X105962268Y-70069152D02*
X105771792Y-70735819D01*
X105771792Y-70735819D02*
X105581316Y-70259628D01*
X105581316Y-70259628D02*
X105390840Y-70735819D01*
X105390840Y-70735819D02*
X105200364Y-70069152D01*
X110708839Y-73228200D02*
X110613601Y-73275819D01*
X110613601Y-73275819D02*
X110423125Y-73275819D01*
X110423125Y-73275819D02*
X110327887Y-73228200D01*
X110327887Y-73228200D02*
X110280268Y-73132961D01*
X110280268Y-73132961D02*
X110280268Y-73085342D01*
X110280268Y-73085342D02*
X110327887Y-72990104D01*
X110327887Y-72990104D02*
X110423125Y-72942485D01*
X110423125Y-72942485D02*
X110565982Y-72942485D01*
X110565982Y-72942485D02*
X110661220Y-72894866D01*
X110661220Y-72894866D02*
X110708839Y-72799628D01*
X110708839Y-72799628D02*
X110708839Y-72752009D01*
X110708839Y-72752009D02*
X110661220Y-72656771D01*
X110661220Y-72656771D02*
X110565982Y-72609152D01*
X110565982Y-72609152D02*
X110423125Y-72609152D01*
X110423125Y-72609152D02*
X110327887Y-72656771D01*
X109423125Y-72609152D02*
X109423125Y-73418676D01*
X109423125Y-73418676D02*
X109470744Y-73513914D01*
X109470744Y-73513914D02*
X109518363Y-73561533D01*
X109518363Y-73561533D02*
X109613601Y-73609152D01*
X109613601Y-73609152D02*
X109756458Y-73609152D01*
X109756458Y-73609152D02*
X109851696Y-73561533D01*
X109423125Y-73228200D02*
X109518363Y-73275819D01*
X109518363Y-73275819D02*
X109708839Y-73275819D01*
X109708839Y-73275819D02*
X109804077Y-73228200D01*
X109804077Y-73228200D02*
X109851696Y-73180580D01*
X109851696Y-73180580D02*
X109899315Y-73085342D01*
X109899315Y-73085342D02*
X109899315Y-72799628D01*
X109899315Y-72799628D02*
X109851696Y-72704390D01*
X109851696Y-72704390D02*
X109804077Y-72656771D01*
X109804077Y-72656771D02*
X109708839Y-72609152D01*
X109708839Y-72609152D02*
X109518363Y-72609152D01*
X109518363Y-72609152D02*
X109423125Y-72656771D01*
X108946934Y-72609152D02*
X108946934Y-73275819D01*
X108946934Y-72704390D02*
X108899315Y-72656771D01*
X108899315Y-72656771D02*
X108804077Y-72609152D01*
X108804077Y-72609152D02*
X108661220Y-72609152D01*
X108661220Y-72609152D02*
X108565982Y-72656771D01*
X108565982Y-72656771D02*
X108518363Y-72752009D01*
X108518363Y-72752009D02*
X108518363Y-73275819D01*
X107899315Y-73275819D02*
X107994553Y-73228200D01*
X107994553Y-73228200D02*
X108042172Y-73132961D01*
X108042172Y-73132961D02*
X108042172Y-72275819D01*
X107565981Y-73228200D02*
X107470743Y-73275819D01*
X107470743Y-73275819D02*
X107280267Y-73275819D01*
X107280267Y-73275819D02*
X107185029Y-73228200D01*
X107185029Y-73228200D02*
X107137410Y-73132961D01*
X107137410Y-73132961D02*
X107137410Y-73085342D01*
X107137410Y-73085342D02*
X107185029Y-72990104D01*
X107185029Y-72990104D02*
X107280267Y-72942485D01*
X107280267Y-72942485D02*
X107423124Y-72942485D01*
X107423124Y-72942485D02*
X107518362Y-72894866D01*
X107518362Y-72894866D02*
X107565981Y-72799628D01*
X107565981Y-72799628D02*
X107565981Y-72752009D01*
X107565981Y-72752009D02*
X107518362Y-72656771D01*
X107518362Y-72656771D02*
X107423124Y-72609152D01*
X107423124Y-72609152D02*
X107280267Y-72609152D01*
X107280267Y-72609152D02*
X107185029Y-72656771D01*
X104565220Y-70862819D02*
X104565220Y-69862819D01*
X104565220Y-69862819D02*
X104327125Y-69862819D01*
X104327125Y-69862819D02*
X104184268Y-69910438D01*
X104184268Y-69910438D02*
X104089030Y-70005676D01*
X104089030Y-70005676D02*
X104041411Y-70100914D01*
X104041411Y-70100914D02*
X103993792Y-70291390D01*
X103993792Y-70291390D02*
X103993792Y-70434247D01*
X103993792Y-70434247D02*
X104041411Y-70624723D01*
X104041411Y-70624723D02*
X104089030Y-70719961D01*
X104089030Y-70719961D02*
X104184268Y-70815200D01*
X104184268Y-70815200D02*
X104327125Y-70862819D01*
X104327125Y-70862819D02*
X104565220Y-70862819D01*
X103231887Y-70339009D02*
X103089030Y-70386628D01*
X103089030Y-70386628D02*
X103041411Y-70434247D01*
X103041411Y-70434247D02*
X102993792Y-70529485D01*
X102993792Y-70529485D02*
X102993792Y-70672342D01*
X102993792Y-70672342D02*
X103041411Y-70767580D01*
X103041411Y-70767580D02*
X103089030Y-70815200D01*
X103089030Y-70815200D02*
X103184268Y-70862819D01*
X103184268Y-70862819D02*
X103565220Y-70862819D01*
X103565220Y-70862819D02*
X103565220Y-69862819D01*
X103565220Y-69862819D02*
X103231887Y-69862819D01*
X103231887Y-69862819D02*
X103136649Y-69910438D01*
X103136649Y-69910438D02*
X103089030Y-69958057D01*
X103089030Y-69958057D02*
X103041411Y-70053295D01*
X103041411Y-70053295D02*
X103041411Y-70148533D01*
X103041411Y-70148533D02*
X103089030Y-70243771D01*
X103089030Y-70243771D02*
X103136649Y-70291390D01*
X103136649Y-70291390D02*
X103231887Y-70339009D01*
X103231887Y-70339009D02*
X103565220Y-70339009D01*
X104092333Y-77559819D02*
X104092333Y-78274104D01*
X104092333Y-78274104D02*
X104139952Y-78416961D01*
X104139952Y-78416961D02*
X104235190Y-78512200D01*
X104235190Y-78512200D02*
X104378047Y-78559819D01*
X104378047Y-78559819D02*
X104473285Y-78559819D01*
X103092333Y-78559819D02*
X103663761Y-78559819D01*
X103378047Y-78559819D02*
X103378047Y-77559819D01*
X103378047Y-77559819D02*
X103473285Y-77702676D01*
X103473285Y-77702676D02*
X103568523Y-77797914D01*
X103568523Y-77797914D02*
X103663761Y-77845533D01*
X110442333Y-77559819D02*
X110442333Y-78274104D01*
X110442333Y-78274104D02*
X110489952Y-78416961D01*
X110489952Y-78416961D02*
X110585190Y-78512200D01*
X110585190Y-78512200D02*
X110728047Y-78559819D01*
X110728047Y-78559819D02*
X110823285Y-78559819D01*
X109537571Y-77893152D02*
X109537571Y-78559819D01*
X109775666Y-77512200D02*
X110013761Y-78226485D01*
X110013761Y-78226485D02*
X109394714Y-78226485D01*
D11*
%TO.C,DO/V1*%
X107823000Y-75565000D03*
D12*
X110363000Y-75565000D03*
%TD*%
D11*
%TO.C,DR2*%
X107823000Y-67945000D03*
D12*
X110363000Y-67945000D03*
%TD*%
D11*
%TO.C,DG1*%
X106172000Y-65405000D03*
D13*
X103632000Y-65405000D03*
%TD*%
D11*
%TO.C,DR1*%
X103627000Y-67945000D03*
D12*
X106167000Y-67945000D03*
%TD*%
D11*
%TO.C,DO/R1*%
X103632000Y-75565000D03*
D12*
X106172000Y-75565000D03*
%TD*%
D11*
%TO.C,DG2*%
X110363000Y-65405000D03*
D13*
X107823000Y-65405000D03*
%TD*%
D11*
%TO.C,DW2*%
X107823000Y-70485000D03*
D12*
X110363000Y-70485000D03*
%TD*%
D11*
%TO.C,DW1*%
X103632000Y-73025000D03*
D12*
X106172000Y-73025000D03*
%TD*%
D14*
%TO.C,J1*%
X105918000Y-78232000D03*
%TD*%
%TO.C,J4*%
X108077000Y-78232000D03*
%TD*%
M02*
