%TF.GenerationSoftware,KiCad,Pcbnew,7.0.9*%
%TF.CreationDate,2024-03-09T17:06:50+01:00*%
%TF.ProjectId,signaux,7369676e-6175-4782-9e6b-696361645f70,rev?*%
%TF.SameCoordinates,Original*%
%TF.FileFunction,Drillmap*%
%TF.FilePolarity,Positive*%
%FSLAX45Y45*%
G04 Gerber Fmt 4.5, Leading zero omitted, Abs format (unit mm)*
G04 Created by KiCad (PCBNEW 7.0.9) date 2024-03-09 17:06:50*
%MOMM*%
%LPD*%
G01*
G04 APERTURE LIST*
%ADD10C,0.100000*%
%ADD11C,0.200000*%
G04 APERTURE END LIST*
D10*
X10274300Y-6413500D02*
X11125200Y-6413500D01*
X11125200Y-7950200D01*
X10274300Y-7950200D01*
X10274300Y-6413500D01*
D11*
X10530077Y-8266684D02*
X10530077Y-8066684D01*
X10530077Y-8066684D02*
X10577696Y-8066684D01*
X10577696Y-8066684D02*
X10606267Y-8076208D01*
X10606267Y-8076208D02*
X10625315Y-8095255D01*
X10625315Y-8095255D02*
X10634839Y-8114303D01*
X10634839Y-8114303D02*
X10644363Y-8152398D01*
X10644363Y-8152398D02*
X10644363Y-8180969D01*
X10644363Y-8180969D02*
X10634839Y-8219065D01*
X10634839Y-8219065D02*
X10625315Y-8238112D01*
X10625315Y-8238112D02*
X10606267Y-8257160D01*
X10606267Y-8257160D02*
X10577696Y-8266684D01*
X10577696Y-8266684D02*
X10530077Y-8266684D01*
X10730077Y-8266684D02*
X10730077Y-8133350D01*
X10730077Y-8171446D02*
X10739601Y-8152398D01*
X10739601Y-8152398D02*
X10749124Y-8142874D01*
X10749124Y-8142874D02*
X10768172Y-8133350D01*
X10768172Y-8133350D02*
X10787220Y-8133350D01*
X10853886Y-8266684D02*
X10853886Y-8133350D01*
X10853886Y-8066684D02*
X10844363Y-8076208D01*
X10844363Y-8076208D02*
X10853886Y-8085731D01*
X10853886Y-8085731D02*
X10863410Y-8076208D01*
X10863410Y-8076208D02*
X10853886Y-8066684D01*
X10853886Y-8066684D02*
X10853886Y-8085731D01*
X10977696Y-8266684D02*
X10958648Y-8257160D01*
X10958648Y-8257160D02*
X10949124Y-8238112D01*
X10949124Y-8238112D02*
X10949124Y-8066684D01*
X11082458Y-8266684D02*
X11063410Y-8257160D01*
X11063410Y-8257160D02*
X11053886Y-8238112D01*
X11053886Y-8238112D02*
X11053886Y-8066684D01*
X11311029Y-8266684D02*
X11311029Y-8066684D01*
X11311029Y-8066684D02*
X11377696Y-8209541D01*
X11377696Y-8209541D02*
X11444362Y-8066684D01*
X11444362Y-8066684D02*
X11444362Y-8266684D01*
X11625315Y-8266684D02*
X11625315Y-8161922D01*
X11625315Y-8161922D02*
X11615791Y-8142874D01*
X11615791Y-8142874D02*
X11596743Y-8133350D01*
X11596743Y-8133350D02*
X11558648Y-8133350D01*
X11558648Y-8133350D02*
X11539601Y-8142874D01*
X11625315Y-8257160D02*
X11606267Y-8266684D01*
X11606267Y-8266684D02*
X11558648Y-8266684D01*
X11558648Y-8266684D02*
X11539601Y-8257160D01*
X11539601Y-8257160D02*
X11530077Y-8238112D01*
X11530077Y-8238112D02*
X11530077Y-8219065D01*
X11530077Y-8219065D02*
X11539601Y-8200017D01*
X11539601Y-8200017D02*
X11558648Y-8190493D01*
X11558648Y-8190493D02*
X11606267Y-8190493D01*
X11606267Y-8190493D02*
X11625315Y-8180969D01*
X11720553Y-8133350D02*
X11720553Y-8333350D01*
X11720553Y-8142874D02*
X11739601Y-8133350D01*
X11739601Y-8133350D02*
X11777696Y-8133350D01*
X11777696Y-8133350D02*
X11796743Y-8142874D01*
X11796743Y-8142874D02*
X11806267Y-8152398D01*
X11806267Y-8152398D02*
X11815791Y-8171446D01*
X11815791Y-8171446D02*
X11815791Y-8228588D01*
X11815791Y-8228588D02*
X11806267Y-8247636D01*
X11806267Y-8247636D02*
X11796743Y-8257160D01*
X11796743Y-8257160D02*
X11777696Y-8266684D01*
X11777696Y-8266684D02*
X11739601Y-8266684D01*
X11739601Y-8266684D02*
X11720553Y-8257160D01*
X11901505Y-8247636D02*
X11911029Y-8257160D01*
X11911029Y-8257160D02*
X11901505Y-8266684D01*
X11901505Y-8266684D02*
X11891982Y-8257160D01*
X11891982Y-8257160D02*
X11901505Y-8247636D01*
X11901505Y-8247636D02*
X11901505Y-8266684D01*
X11901505Y-8142874D02*
X11911029Y-8152398D01*
X11911029Y-8152398D02*
X11901505Y-8161922D01*
X11901505Y-8161922D02*
X11891982Y-8152398D01*
X11891982Y-8152398D02*
X11901505Y-8142874D01*
X11901505Y-8142874D02*
X11901505Y-8161922D01*
M02*
